<svg version="1.0" xmlns="http://www.w3.org/2000/svg"
 width="300px" height="90px" viewBox="0 0 2100.000000 600.000000"
 preserveAspectRatio="xMidYMid meet">
<metadata>
Created by potrace 1.15, written by Peter Selinger 2001-2017
</metadata>
<g transform="translate(0.000000,600.000000) scale(0.100000,-0.100000)"
fill="#fff" stroke="none">
<path d="M10350 5354 c-170 -22 -352 -77 -480 -146 -220 -118 -410 -324 -499
-544 -117 -287 -105 -648 29 -914 158 -314 446 -537 915 -709 77 -29 172 -63
210 -78 239 -89 395 -204 462 -341 38 -76 38 -77 38 -201 0 -118 -2 -130 -28
-183 -60 -122 -175 -209 -323 -244 -107 -25 -305 -15 -404 19 -164 58 -279
170 -339 332 -29 76 -51 191 -51 261 l0 54 -313 0 -314 0 -33 -41 -33 -41 7
-90 c44 -587 431 -1014 1037 -1145 118 -25 446 -25 572 0 252 51 448 149 611
306 169 163 265 352 301 591 37 241 4 481 -94 685 -170 354 -471 583 -1011
770 -162 57 -291 112 -368 157 -75 44 -193 162 -221 219 -94 199 -1 463 199
564 106 54 288 74 411 45 236 -54 376 -249 405 -559 l7 -71 306 0 307 0 32 33
c30 31 32 37 32 109 0 209 -78 449 -210 646 -166 247 -428 422 -740 493 -84
19 -340 33 -420 23z"/>
<path d="M492 5277 l-32 -33 0 -1903 0 -1902 26 -35 26 -34 287 0 287 0 32 33
32 33 0 583 0 582 137 175 c75 96 139 174 142 174 3 0 198 -355 433 -788 l427
-787 355 -3 356 -2 26 51 c14 28 24 59 21 68 -2 10 -264 480 -582 1046 l-577
1028 86 126 c47 69 294 432 550 806 256 374 466 685 466 692 0 7 -11 37 -24
68 l-25 55 -355 0 -355 0 -538 -807 -538 -808 -5 770 -5 770 -29 38 -28 37
-282 0 -282 0 -32 -33z"/>
<path d="M4355 4379 c-504 -52 -896 -412 -922 -847 l-6 -93 33 -34 34 -35 278
0 277 0 28 34 c17 22 32 59 40 97 34 169 162 254 378 252 196 -1 325 -75 394
-223 21 -46 26 -74 29 -171 l4 -116 -288 -6 c-349 -6 -489 -27 -684 -104 -194
-76 -376 -233 -462 -398 -57 -111 -93 -230 -109 -366 -43 -375 101 -715 385
-903 273 -181 677 -201 981 -48 77 38 173 101 194 126 18 21 31 20 31 -1 0
-10 12 -53 27 -95 l26 -78 311 0 311 0 28 34 c34 44 35 81 2 183 -57 181 -57
179 -65 1093 -6 804 -8 849 -27 935 -81 351 -305 598 -644 708 -155 51 -404
75 -584 56z m565 -1907 l0 -219 -28 -39 c-127 -175 -369 -273 -574 -234 -177
33 -266 153 -256 345 9 181 120 295 328 339 107 22 114 23 333 25 l197 1 0
-218z"/>
<path d="M8015 4379 c-87 -11 -222 -52 -295 -89 -79 -40 -190 -121 -269 -195
-37 -36 -71 -62 -75 -58 -3 3 -6 34 -6 67 0 34 -3 98 -7 144 l-6 82 -292 0
-291 0 -32 -33 -32 -33 0 -1415 0 -1415 33 -32 33 -32 281 0 282 0 30 37 31
38 0 876 0 877 42 83 c31 64 59 102 117 159 134 133 244 172 481 172 138 0
333 -23 429 -52 36 -10 45 -7 97 37 20 16 26 51 64 350 23 183 39 337 36 342
-12 19 -120 52 -230 71 -136 23 -327 32 -421 19z"/>
<path d="M16435 4379 c-188 -25 -358 -109 -510 -251 -36 -33 -65 -59 -66 -57
-1 2 -6 60 -13 129 l-11 125 -286 3 -286 2 -27 -34 -26 -35 0 -1411 0 -1411
28 -35 27 -34 287 0 287 0 25 33 26 34 0 997 0 998 36 54 c74 111 200 199 322
225 82 17 243 6 313 -20 107 -41 173 -122 216 -268 16 -53 18 -143 21 -1023
l3 -965 31 -32 32 -33 282 0 283 0 26 34 26 34 -4 1033 c-3 1013 -4 1036 -25
1129 -29 128 -39 162 -75 250 -114 282 -317 456 -597 514 -99 20 -258 27 -345
15z"/>
<path d="M19173 4380 c-565 -60 -958 -490 -1058 -1160 -23 -153 -30 -419 -16
-591 58 -712 412 -1185 970 -1296 105 -21 357 -23 446 -4 297 63 569 239 724
470 54 79 123 226 145 306 21 79 39 258 31 307 l-7 38 -291 0 -292 0 -31 -38
c-23 -27 -32 -51 -37 -91 -26 -220 -281 -390 -527 -352 -98 15 -172 52 -241
120 -145 146 -209 376 -209 754 0 284 28 455 100 604 95 195 259 296 458 281
224 -18 394 -189 419 -423 5 -47 13 -68 37 -97 l31 -38 291 0 292 0 6 34 c11
56 -11 273 -38 379 -28 110 -92 253 -156 348 -59 87 -189 215 -279 274 -216
142 -489 204 -768 175z"/>
<path d="M12076 4286 c-14 -25 -26 -51 -26 -59 0 -8 232 -603 515 -1323 283
-720 515 -1317 515 -1327 0 -10 -54 -127 -119 -260 -125 -253 -179 -335 -253
-384 -41 -27 -42 -28 -192 -25 l-152 3 -47 -298 c-26 -164 -48 -303 -47 -310
0 -6 51 -24 113 -39 96 -24 132 -28 252 -28 205 0 314 35 472 152 139 103 249
246 347 453 30 63 340 851 690 1752 l635 1638 -30 50 -31 49 -331 0 -332 0
-320 -930 -320 -930 -18 63 c-10 34 -156 452 -325 929 l-307 868 -332 0 -331
0 -26 -44z"/>
</g>
</svg>
